<?xml version="1.0" encoding="utf-8"?>
<svg viewBox="0 0 500 500" xmlns="http://www.w3.org/2000/svg">
  <g transform="matrix(1, 0, 0, 1, 73.668297, 18.864733)">
    <path fill-rule="evenodd" clip-rule="evenodd" d="M 163.762 195.635 C 175.374 170.775 216.364 188.839 202.772 214.56 C 197.74 223.506 179.934 225.054 170.987 222.216 C 160.149 218.775 159.633 204.495 163.762 195.635 Z M 237.826 192.495 C 244.213 192.495 248.493 197.259 248.578 204.157 L 248.579 204.366 C 248.579 205.097 247.977 205.7 247.246 205.7 L 233.267 205.7 C 232.923 205.7 232.708 206.001 232.794 206.345 C 233.396 208.71 235.504 210.56 238.815 210.56 C 240.044 210.56 241.585 210.209 242.881 209.544 L 243.073 209.442 C 243.934 208.968 245.009 209.227 245.568 210.044 L 245.955 210.646 C 246.6 211.592 246.299 212.839 245.31 213.442 C 243.289 214.603 240.708 215.205 238.17 215.205 C 231.633 215.248 226.729 210.775 226.729 203.85 C 226.729 197.571 231.332 192.495 237.826 192.495 Z M 225.095 197.14 L 225.095 193.614 C 225.095 193.011 224.493 192.538 223.891 192.624 C 221.998 192.925 220.192 193.958 218.901 195.248 C 218.686 195.463 218.256 195.291 218.256 194.947 L 218.256 193.442 C 218.256 193.226 218.084 193.054 217.869 193.054 L 213.568 193.054 C 213.052 193.054 212.622 193.485 212.622 194.001 L 212.622 212.839 C 212.622 213.872 213.439 214.689 214.471 214.775 L 215.977 214.775 C 217.224 214.775 218.256 213.743 218.256 212.452 L 218.256 201.399 C 218.256 200.667 218.6 199.936 219.159 199.506 C 220.364 198.56 222.127 197.958 223.546 197.958 L 224.321 197.958 C 224.751 197.958 225.095 197.571 225.095 197.14 Z M 254.385 193.054 C 254.729 193.054 255.073 193.226 255.245 193.528 L 259.374 199.721 L 263.46 193.571 C 263.675 193.27 263.976 193.097 264.32 193.097 L 268.062 193.097 C 268.923 193.097 269.396 194.044 268.923 194.732 L 262.901 203.635 L 269.396 213.097 C 269.869 213.786 269.396 214.775 268.535 214.775 L 264.793 214.775 C 264.492 214.689 264.191 214.517 263.976 214.216 L 259.417 207.377 L 254.815 214.216 C 254.6 214.517 254.299 214.689 253.955 214.689 L 250.256 214.689 C 249.396 214.689 248.923 213.743 249.396 213.011 L 255.891 203.549 L 249.783 194.689 C 249.31 194.001 249.783 193.054 250.643 193.054 L 254.385 193.054 Z M 233.138 199.807 C 233.912 198.345 235.374 197.14 237.826 197.14 C 240.407 197.14 241.869 198.388 242.6 199.807 C 243.03 200.71 242.385 201.743 241.396 201.743 L 234.342 201.743 C 233.353 201.743 232.665 200.71 233.138 199.807 Z" style="fill: rgb(255, 255, 255);"/>
  </g>
  <path d="M 254.936 211.928 C 255.464 211.635 256.059 211.488 256.655 211.488 C 257.257 211.488 257.902 211.66 258.461 211.961 L 265.816 216.779 L 265.896 216.832 C 266.776 217.454 267.002 218.698 266.375 219.617 C 265.73 220.563 264.483 220.822 263.537 220.219 L 256.612 215.703 L 249.945 219.703 L 249.945 229.854 L 249.943 229.946 C 249.895 231.022 249.011 231.875 247.924 231.875 C 246.805 231.875 245.902 230.972 245.902 229.854 L 245.902 219.359 L 245.904 219.239 C 245.946 218.078 246.583 216.972 247.623 216.348 L 254.805 212.004 L 254.936 211.928 Z" style="fill: rgb(0, 21, 41);"/>
  <path d="M 268.268 225.166 C 268.827 225.123 269.343 225.295 269.73 225.639 C 270.117 225.983 270.418 226.499 270.461 227.015 C 270.501 227.497 270.354 228.016 270.055 228.398 L 269.927 228.552 C 269.514 229.02 267.113 231.402 263.063 231.402 C 259.216 231.402 256.858 229.252 256.277 228.665 L 256.139 228.52 C 255.795 228.133 255.623 227.574 255.623 227.058 C 255.666 226.499 255.924 226.026 256.311 225.682 C 256.698 225.338 257.171 225.166 257.644 225.166 C 258.203 225.166 258.762 225.381 259.192 225.854 C 259.193 225.855 259.195 225.856 259.197 225.858 C 259.292 225.955 260.661 227.359 263.063 227.359 C 265.302 227.359 266.608 226.14 266.851 225.895 L 266.962 225.778 C 267.299 225.433 267.746 225.206 268.268 225.166 Z" style="fill: rgb(0, 21, 41);"/>
</svg>