<?xml version="1.0" encoding="utf-8"?>
<svg viewBox="157.219 165.512 139.171 54.683" xmlns="http://www.w3.org/2000/svg">
  <path fill-rule="evenodd" clip-rule="evenodd" d="M 167.266 180.516 C 175.851 161.378 206.148 175.284 196.102 195.084 C 192.382 201.971 179.221 203.163 172.607 200.978 C 164.596 198.329 164.214 187.337 167.266 180.516 Z M 222.013 178.098 C 226.733 178.098 229.896 181.766 229.96 187.076 L 229.96 187.237 C 229.96 187.8 229.516 188.264 228.975 188.264 L 218.643 188.264 C 218.389 188.264 218.229 188.495 218.293 188.76 C 218.738 190.582 220.296 192.005 222.744 192.005 C 223.652 192.005 224.791 191.735 225.749 191.223 L 225.891 191.144 C 226.527 190.78 227.322 190.979 227.735 191.608 L 228.021 192.071 C 228.498 192.8 228.275 193.76 227.544 194.224 C 226.05 195.118 224.143 195.581 222.267 195.581 C 217.434 195.614 213.81 192.171 213.81 186.84 C 213.81 182.006 217.212 178.098 222.013 178.098 Z M 212.601 181.675 L 212.601 178.96 C 212.601 178.496 212.157 178.131 211.712 178.198 C 210.313 178.43 208.977 179.225 208.024 180.217 C 207.865 180.383 207.547 180.251 207.547 179.986 L 207.547 178.827 C 207.547 178.662 207.42 178.529 207.261 178.529 L 204.082 178.529 C 203.7 178.529 203.383 178.86 203.383 179.258 L 203.383 193.76 C 203.383 194.555 203.986 195.184 204.749 195.25 L 205.862 195.25 C 206.784 195.25 207.547 194.456 207.547 193.462 L 207.547 184.953 C 207.547 184.389 207.801 183.827 208.215 183.496 C 209.105 182.767 210.408 182.303 211.457 182.303 L 212.029 182.303 C 212.347 182.303 212.601 182.006 212.601 181.675 Z M 234.253 178.529 C 234.507 178.529 234.761 178.662 234.889 178.894 L 237.941 183.661 L 240.96 178.927 C 241.12 178.695 241.342 178.562 241.596 178.562 L 244.362 178.562 C 244.999 178.562 245.348 179.291 244.999 179.821 L 240.548 186.674 L 245.348 193.959 C 245.698 194.489 245.348 195.25 244.711 195.25 L 241.946 195.25 C 241.723 195.184 241.501 195.051 241.342 194.82 L 237.972 189.555 L 234.571 194.82 C 234.411 195.051 234.189 195.184 233.935 195.184 L 231.201 195.184 C 230.565 195.184 230.214 194.456 230.565 193.892 L 235.365 186.608 L 230.851 179.787 C 230.501 179.258 230.851 178.529 231.487 178.529 L 234.253 178.529 Z M 218.547 183.727 C 219.119 182.602 220.2 181.675 222.013 181.675 C 223.92 181.675 225.001 182.635 225.542 183.727 C 225.859 184.423 225.382 185.218 224.651 185.218 L 219.437 185.218 C 218.706 185.218 218.197 184.423 218.547 183.727 Z" fill="#213A6A" style=""/>
  <path d="M 180.206 178.537 C 180.597 178.31 181.037 178.198 181.477 178.198 C 181.922 178.198 182.399 178.33 182.812 178.562 L 188.248 182.27 L 188.308 182.312 C 188.959 182.791 189.125 183.748 188.662 184.456 C 188.185 185.184 187.263 185.383 186.563 184.919 L 181.445 181.443 L 176.518 184.522 L 176.518 192.336 L 176.516 192.408 C 176.48 193.235 175.827 193.892 175.023 193.892 C 174.197 193.892 173.529 193.197 173.529 192.336 L 173.529 184.257 L 173.53 184.164 C 173.561 183.271 174.032 182.419 174.801 181.94 L 180.11 178.595 L 180.206 178.537 Z" fill="white" style=""/>
  <path d="M 190.061 188.727 C 190.474 188.694 190.856 188.826 191.142 189.091 C 191.428 189.356 191.65 189.753 191.682 190.15 C 191.712 190.521 191.603 190.921 191.382 191.215 L 191.287 191.334 C 190.982 191.694 189.207 193.528 186.214 193.528 C 183.371 193.528 181.626 191.873 181.198 191.42 L 181.096 191.309 C 180.841 191.012 180.714 190.581 180.714 190.184 C 180.746 189.753 180.937 189.389 181.223 189.124 C 181.509 188.86 181.859 188.727 182.208 188.727 C 182.622 188.727 183.035 188.893 183.353 189.257 C 183.353 189.257 183.355 189.259 183.356 189.26 C 183.426 189.335 184.438 190.415 186.214 190.415 C 187.869 190.415 188.834 189.477 189.014 189.288 L 189.096 189.199 C 189.345 188.933 189.675 188.758 190.061 188.727 Z" fill="white" style=""/>
</svg>